<svg width="36" height="29" viewBox="0 0 36 29" fill="none" xmlns="http://www.w3.org/2000/svg">
<path d="M18 28C18 28 1 19.4091 1 8.97728C1 7.13313 1.70804 5.34594 3.00366 3.91978C4.29927 2.49362 6.10243 1.51659 8.10633 1.15493C10.1102 0.793258 12.1911 1.06929 13.9949 1.93607C15.7987 2.80284 17.214 4.20681 18 5.9091C18.786 4.20681 20.2013 2.80284 22.0051 1.93607C23.8089 1.06929 25.8898 0.793258 27.8937 1.15493C29.8976 1.51659 31.7007 2.49362 32.9963 3.91978C34.292 5.34594 35 7.13313 35 8.97728C35 19.4091 18 28 18 28Z" stroke="#4B4B4B" stroke-width="2" stroke-linecap="round" stroke-linejoin="round"/>
</svg>
